<?xml version="1.0" encoding="utf-8"?>
<!-- Svg Vector Icons : http://www.onlinewebfonts.com/icon -->
<!DOCTYPE svg PUBLIC "-//W3C//DTD SVG 1.1//EN" "http://www.w3.org/Graphics/SVG/1.1/DTD/svg11.dtd">
<svg version="1.1" xmlns="http://www.w3.org/2000/svg" xmlns:xlink="http://www.w3.org/1999/xlink" x="0px" y="0px" viewBox="0 0 256 256" enable-background="new 0 0 256 256" xml:space="preserve">
<metadata> Svg Vector Icons : http://www.onlinewebfonts.com/icon </metadata>
<g><g><path fill="#000000" d="M94.3,172.3c-13.6-10.2-22.4-26.5-22.4-44.8c0-30.9,25.1-56,56-56c30.9,0,56,25.1,56,56c0,18.4-8.9,34.7-22.5,44.9c25.4,9.1,46.1,28,57.5,52.3c17-20.4,27.2-46.7,27.2-75.4c0-65.2-52.8-118-118-118c-65.2,0-118,52.8-118,118c0,28.5,10.1,54.6,26.9,74.9C48.2,200.1,69,181.3,94.3,172.3z"/></g></g>
</svg>